<svg width="48" height="49" viewBox="0 0 48 49" fill="none" xmlns="http://www.w3.org/2000/svg">
<g clip-path="url(#clip0_18_655)">
<path d="M0.65694 30.4549C0.809035 39.2941 10.0772 46.0514 15.9996 47.2174C18.1733 47.6628 18.675 47.7961 19.1854 47.8632C19.6278 47.9214 20.0768 47.9299 21.6267 48.0489C24.4215 48.5873 27.3823 48.598 30.2592 48.3206C38.4522 48.3206 50.8178 37.0496 47.424 19.7184C47.1341 17.6726 46.5829 15.7076 45.7565 13.9675C43.6327 9.49563 40.1672 5.53035 35.8957 3.64177C35.8127 3.59721 35.7276 3.55139 35.6405 3.50447C33.4784 2.33972 30.0635 0.500021 25.2046 0.5C19.7138 0.499977 12.8053 1.67805 8.17976 5.49454C1.23999 11.2205 -1.34302 20.377 0.65694 30.4549Z" fill="#BAEBFF"/>
<path d="M29.1162 31.3897L32.9636 31.3265C34.3393 31.304 34.9452 29.5828 33.8872 28.7034L22.6808 19.3889C21.7146 18.5858 20.25 19.273 20.25 20.5294V34.6434C20.25 35.9736 21.8659 36.6311 22.7946 35.6788L25.4889 32.9159C25.4889 32.9159 25.493 32.9151 25.4959 32.915L27.7012 37.5156C28.0442 38.2312 28.8896 38.5499 29.6196 38.2389L30.5019 37.8631C31.2791 37.532 31.6231 36.6195 31.2579 35.8578L29.1162 31.3897Z" fill="white" stroke="#202B93" stroke-width="2"/>
<path d="M16.4104 25.5C16.2803 25.2991 16.1597 25.0906 16.0495 24.8754C15.5396 23.8801 15.25 22.7398 15.25 21.5278C15.25 17.6464 18.2198 14.5 21.8833 14.5C24.8983 14.5 27.4434 16.6312 28.25 19.5492" stroke="#202B93" stroke-width="2"/>
<path d="M31.83 24.5336C32.1034 23.5572 32.25 22.5244 32.25 21.4558C32.25 15.4051 27.549 10.5 21.75 10.5C15.951 10.5 11.25 15.4051 11.25 21.4558C11.25 25.9484 13.8416 29.8094 17.55 31.5" stroke="#202B93" stroke-width="2"/>
</g>
<defs>
<clipPath id="clip0_18_655">
<rect width="48" height="49" fill="white"/>
</clipPath>
</defs>
</svg>
