<svg width="48" height="49" viewBox="0 0 48 49" fill="none" xmlns="http://www.w3.org/2000/svg">
<path d="M0.65694 30.5531C0.809035 39.2118 10.0772 45.8313 15.9996 46.9734C18.1733 47.4098 18.675 47.5403 19.1854 47.6061C19.6278 47.6631 20.0768 47.6714 21.6267 47.788C24.4215 48.3154 27.3823 48.3259 30.2592 48.0541C38.4522 48.0541 50.8178 37.0132 47.424 20.0357C47.1341 18.0317 46.5829 16.1067 45.7565 14.4022C43.6327 10.0215 40.1672 6.13716 35.8957 4.28713C35.8127 4.24348 35.7276 4.19859 35.6405 4.15263C33.4784 3.01165 30.0635 1.20949 25.2046 1.20947C19.7138 1.20945 12.8053 2.36348 8.17976 6.10209C1.23999 11.7112 -1.34302 20.6808 0.65694 30.5531Z" fill="#BAEBFF"/>
<path d="M33.3611 13.6834L10.0584 19.9274C9.52601 20.07 9.21006 20.6173 9.35272 21.1497L13.3225 35.9653C13.4652 36.4977 14.0125 36.8137 14.5449 36.671L37.8476 30.4271C38.38 30.2844 38.696 29.7371 38.5533 29.2047L34.5835 14.3891C34.4408 13.8567 33.8936 13.5408 33.3611 13.6834Z" stroke="#202B93" stroke-width="1.99606"/>
<path d="M35.6245 17.1455L9.31445 24.1953L10.4515 28.4389L36.7616 21.3891L35.6245 17.1455Z" fill="#202B93"/>
<path d="M0.65694 30.5531C0.809035 39.2118 10.0772 45.8313 15.9996 46.9734C18.1733 47.4098 18.675 47.5403 19.1854 47.6061C19.6278 47.6631 20.0768 47.6714 21.6267 47.788C24.4215 48.3154 27.3823 48.3259 30.2592 48.0541C38.4522 48.0541 50.8178 37.0132 47.424 20.0357C47.1341 18.0317 46.5829 16.1067 45.7565 14.4022C43.6327 10.0215 40.1672 6.13716 35.8957 4.28713C35.8127 4.24348 35.7276 4.19859 35.6405 4.15263C33.4784 3.01165 30.0635 1.20949 25.2046 1.20947C19.7138 1.20945 12.8053 2.36348 8.17976 6.10209C1.23999 11.7112 -1.34302 20.6808 0.65694 30.5531Z" fill="#BAEBFF"/>
<mask id="mask0_18_818" style="mask-type:luminance" maskUnits="userSpaceOnUse" x="10" y="12" width="27" height="27">
<path d="M36.9273 12.2026H10.9785V38.1514H36.9273V12.2026Z" fill="white"/>
</mask>
<g mask="url(#mask0_18_818)">
<path d="M31.7781 15.203L31.5754 15.3247C30.9267 15.649 30.2374 15.9734 29.5482 16.2977C27.8858 15.203 25.9802 14.6354 23.9531 14.6354C18.1956 14.6354 13.5331 19.2982 13.5331 25.0554C13.5331 27.4881 14.3845 29.8803 15.9658 31.7453L16.3712 32.1913L14.7089 33.6104L14.344 33.1644C12.4384 30.8939 11.3843 28.0151 11.3843 25.0554C11.3843 18.0816 17.0606 12.4458 23.9938 12.4458C26.7914 12.4458 29.5885 13.419 31.7781 15.203Z" fill="#202B93"/>
<path d="M36.5624 25.0555V25.6637H34.373V25.0555C34.373 23.5554 34.0486 22.0553 33.3999 20.6767L34.7784 18.6494C35.9542 20.5956 36.5624 22.7849 36.5624 25.0555Z" fill="#202B93"/>
<path d="M17.8522 33.8295C19.0787 34.0353 18.7695 35.875 17.543 35.6692C16.3175 35.4625 16.6257 33.6237 17.8522 33.8295Z" fill="#202B93"/>
<path d="M36.4006 29.5965C36.4006 30.6264 35.5653 31.4616 34.5355 31.4616C33.5057 31.4616 32.6704 30.6263 32.6704 29.5965C32.6704 28.5667 33.5057 27.7314 34.5355 27.7314C35.5653 27.7314 36.4006 28.5667 36.4006 29.5965Z" fill="#202B93"/>
<path d="M31.1295 33.4483C30.8862 33.2862 30.6024 33.2051 30.3186 33.2051C29.832 33.2051 29.3455 33.4483 29.1022 33.8538C28.6562 34.5431 28.859 35.4351 29.5077 35.8811C29.751 36.0432 30.0348 36.1243 30.3186 36.1243C30.8051 36.1243 31.2917 35.8811 31.5349 35.4756C31.9809 34.7863 31.8188 33.8943 31.1295 33.4483Z" fill="#202B93"/>
<path d="M24.0341 35.2729C23.8314 35.2729 23.6692 35.3135 23.507 35.3946C23.1827 35.5162 22.9394 35.8001 22.8178 36.1245C22.6962 36.4489 22.6961 36.8137 22.8178 37.1381C23.0205 37.6246 23.507 37.9489 24.0341 37.9489C24.2369 37.9489 24.399 37.9085 24.5612 37.8274C24.8856 37.7057 25.1288 37.4218 25.2505 37.0975C25.3721 36.7731 25.3721 36.4083 25.2505 36.0839C25.0072 35.5974 24.5612 35.2729 24.0341 35.2729Z" fill="#202B93"/>
<path d="M33.8867 17.1898C33.9678 17.0277 34.0083 16.7844 33.8867 16.6222C33.8867 16.5817 33.8462 16.5817 33.8462 16.5411L33.7651 16.46C33.6029 16.2979 33.3191 16.2573 33.0758 16.3384C33.0353 16.3384 32.9947 16.3789 32.9542 16.3789L32.4271 16.6628C31.3324 17.1898 30.2377 17.7169 29.1835 18.244C28.5753 18.5279 27.9671 18.8522 27.359 19.136C25.7777 19.9064 24.1559 20.6767 22.5745 21.4876C20.9527 22.2985 20.1824 24.0825 20.7095 25.826C21.196 27.4073 22.6151 28.4209 24.237 28.4209C24.3991 28.4209 24.5208 28.4209 24.683 28.3804C25.7777 28.2587 26.7102 27.6506 27.44 26.5964C28.8591 24.5286 30.3188 22.4607 31.7377 20.3526L33.8867 17.1898Z" fill="#202B93"/>
<path d="M24.4521 26.1753C25.2789 26.1753 25.9492 25.505 25.9492 24.6782C25.9492 23.8514 25.2789 23.1812 24.4521 23.1812C23.6253 23.1812 22.9551 23.8514 22.9551 24.6782C22.9551 25.505 23.6253 26.1753 24.4521 26.1753Z" fill="white"/>
</g>
</svg>
