<svg width="48" height="48" viewBox="0 0 48 48" fill="none" xmlns="http://www.w3.org/2000/svg">
<g clip-path="url(#clip0_18_919)">
<path d="M0.65694 29.9549C0.809035 38.7941 10.0772 45.5514 15.9996 46.7174C18.1733 47.1628 18.675 47.2961 19.1854 47.3632C19.6278 47.4214 20.0768 47.4299 21.6267 47.5489C24.4215 48.0873 27.3823 48.098 30.2592 47.8206C38.4522 47.8206 50.8178 36.5496 47.424 19.2184C47.1341 17.1726 46.5829 15.2076 45.7565 13.4675C43.6327 8.99563 40.1672 5.03035 35.8957 3.14177C35.8127 3.09721 35.7276 3.05139 35.6405 3.00447C33.4784 1.83972 30.0635 2.05124e-05 25.2046 3.42043e-10C19.7138 -2.3179e-05 12.8053 1.17805 8.17976 4.99454C1.23999 10.7205 -1.34302 19.877 0.65694 29.9549Z" fill="#BAEBFF"/>
<path d="M29 9H19C16.7909 9 15 10.7909 15 13V35.5C15 37.7091 16.7909 39.5 19 39.5H29C31.2091 39.5 33 37.7091 33 35.5V13C33 10.7909 31.2091 9 29 9Z" fill="white" stroke="#202B93" stroke-width="2"/>
<path d="M24 36.75C24.6904 36.75 25.25 36.1904 25.25 35.5C25.25 34.8096 24.6904 34.25 24 34.25C23.3096 34.25 22.75 34.8096 22.75 35.5C22.75 36.1904 23.3096 36.75 24 36.75Z" fill="#202B93"/>
<path d="M23.375 13H20.875C20.5298 13 20.25 13.2798 20.25 13.625C20.25 13.9702 20.5298 14.25 20.875 14.25H23.375C23.7202 14.25 24 13.9702 24 13.625C24 13.2798 23.7202 13 23.375 13Z" fill="#202B93"/>
<path d="M26.5 13.625C26.5 13.2798 26.2202 13 25.875 13C25.5298 13 25.25 13.2798 25.25 13.625C25.25 13.9702 25.5298 14.25 25.875 14.25C26.2202 14.25 26.5 13.9702 26.5 13.625Z" fill="#202B93"/>
<path d="M24 30.5C27.4518 30.5 30.25 27.7018 30.25 24.25C30.25 20.7982 27.4518 18 24 18C20.5482 18 17.75 20.7982 17.75 24.25C17.75 27.7018 20.5482 30.5 24 30.5Z" fill="#202B93"/>
<path d="M26.8786 21.75C25.6904 23.1114 24.3167 24.6766 23.088 26.0827L21.0521 24.1081L20.25 25.1835L22.7179 27.5813L23.1536 28L23.5546 27.5416C24.87 26.0353 26.4327 24.2552 27.75 22.7462L26.8786 21.75Z" fill="white"/>
</g>
<defs>
<clipPath id="clip0_18_919">
<rect width="48" height="48" fill="white"/>
</clipPath>
</defs>
</svg>
